<?xml version="1.0" encoding="UTF-8"?>
<svg width="663px" height="706px" viewBox="0 0 663 706" version="1.1" xmlns="http://www.w3.org/2000/svg" xmlns:xlink="http://www.w3.org/1999/xlink">
    <!-- Generator: Sketch 53.2 (72643) - https://sketchapp.com -->
    <title>Maple leaf large</title>
    <desc>Created with Sketch.</desc>
    <defs>
        <polygon id="path-1" points="0 0 663 0 663 706 0 706"></polygon>
    </defs>
    <g id="01-Pages" stroke="none" stroke-width="1" fill="none" fill-rule="evenodd">
        <g id="KMac_Menu" transform="translate(-613.000000, -31.000000)">
            <g id="Maple-leaf-large" transform="translate(613.000000, 31.000000)">
                <mask id="mask-2" fill="white">
                    <use xlink:href="#path-1"></use>
                </mask>
                <g id="Clip-2"></g>
                <path d="M331.5,0 L273.606182,106.459411 C267.006287,118.047219 255.253842,116.991187 243.47245,110.51229 L201.586273,89.1062419 L232.819988,252.676989 C239.361989,282.53129 218.28864,282.53129 207.867752,269.602038 L134.747861,188.858425 L122.850681,229.872413 C121.490176,235.266737 115.469219,240.917933 106.437784,239.576488 L13.9234632,220.396669 L38.2099197,307.476472 C43.4203633,326.85608 47.4729305,334.876213 32.9705292,340.013664 L0,355.283312 L159.265892,482.834816 C165.576319,487.658312 168.731532,496.334897 166.50262,504.183781 L152.55021,549.279188 C207.375655,543.028622 256.498559,533.667044 311.381898,527.901682 C316.216032,527.387937 324.321167,535.265362 324.29222,540.802393 L317.026546,706 L343.686649,706 L339.4604,541.14489 C339.431453,535.6364 346.783968,527.387937 351.647049,527.901682 C406.501441,533.667044 455.624345,543.028622 510.478737,549.279188 L496.526327,504.183781 C494.268468,496.334897 497.452628,487.658312 503.763054,482.834816 L663,355.283312 L630.029471,340.013664 C615.556016,334.876213 619.579637,326.85608 624.79008,307.476472 L649.105484,220.396669 L556.562216,239.576488 C547.559728,240.917933 541.538771,235.266737 540.149319,229.872413 L528.281086,188.858425 L455.132248,269.602038 C444.71136,282.53129 423.638011,282.53129 430.208959,252.676989 L461.442674,89.1062419 L419.52755,110.51229 C407.775105,116.991187 395.993713,118.047219 389.422765,106.459411" id="Fill-1" fill="#DD4743" mask="url(#mask-2)"></path>
            </g>
        </g>
    </g>
</svg>