<?xml version="1.0" encoding="UTF-8"?>
<svg width="40px" height="43px" viewBox="0 0 40 43" version="1.1" xmlns="http://www.w3.org/2000/svg" xmlns:xlink="http://www.w3.org/1999/xlink">
    <!-- Generator: Sketch 53.2 (72643) - https://sketchapp.com -->
    <title>Maple leaf small</title>
    <desc>Created with Sketch.</desc>
    <defs>
        <polygon id="path-1" points="0 0 40 0 40 42.2641509 0 42.2641509"></polygon>
    </defs>
    <g id="01-Pages" stroke="none" stroke-width="1" fill="none" fill-rule="evenodd">
        <g id="KMac_RSVP_ON-SCROLL" transform="translate(-663.000000, -24.000000)">
            <g id="Maple-leaf-small" transform="translate(663.000000, 24.000000)">
                <mask id="mask-2" fill="white">
                    <use xlink:href="#path-1"></use>
                </mask>
                <g id="Clip-2"></g>
                <path d="M20,0 L16.5071603,6.37311138 C16.1089766,7.06680661 15.3999301,7.00358808 14.6891373,6.61573385 L12.1620678,5.33427714 L14.0464548,15.126315 C14.4411457,16.91352 13.169752,16.91352 12.5410409,16.1395201 L8.12958435,11.3058654 L7.4118058,13.7611365 C7.32972407,14.0840636 6.96646874,14.4223681 6.42158575,14.3420635 L0.840027943,13.1938783 L2.30527419,18.4068442 C2.61962976,19.5669897 2.86412854,20.0471088 1.9891722,20.3546584 L0,21.2687642 L9.60880196,28.9045376 C9.98952148,29.1932925 10.1798812,29.7127096 10.0454069,30.1825771 L9.20363255,32.8821792 C12.5113517,32.5079938 15.4750262,31.9475701 18.7862382,31.6024311 C19.0778903,31.5716761 19.5668879,32.0432522 19.5651415,32.3747224 L19.1267901,42.2641509 L20.7352428,42.2641509 L20.4802655,32.3952257 C20.478519,32.0654641 20.9221097,31.5716761 21.2155082,31.6024311 C24.5249738,31.9475701 27.4886483,32.5079938 30.7981139,32.8821792 L29.9563395,30.1825771 C29.8201188,29.7127096 30.0122249,29.1932925 30.3929445,28.9045376 L40,21.2687642 L38.0108278,20.3546584 C37.1376179,20.0471088 37.3803702,19.5669897 37.6947258,18.4068442 L39.1617185,13.1938783 L33.5784143,14.3420635 C33.0352777,14.4223681 32.6720224,14.0840636 32.5881942,13.7611365 L31.8721621,11.3058654 L27.4589591,16.1395201 C26.830248,16.91352 25.5588543,16.91352 25.9552917,15.126315 L27.8396787,5.33427714 L25.3108627,6.61573385 C24.6018163,7.00358808 23.8910234,7.06680661 23.4945861,6.37311138" id="Fill-1" fill="#FFFFFF" mask="url(#mask-2)"></path>
            </g>
        </g>
    </g>
</svg>